<svg width="32" height="32" viewBox="0 0 32 32" fill="none" xmlns="http://www.w3.org/2000/svg">
<rect width="32" height="32" rx="6" fill="#3B82F6"/>
<path d="M16.1594 8.99375L11.6219 12.6688C10.8672 13.2781 10.7219 14.375 11.2938 15.1578C11.8984 15.9922 13.075 16.1562 13.8859 15.5234L18.5406 11.9047C18.8688 11.6516 19.3375 11.7078 19.5953 12.0359C19.8531 12.3641 19.7922 12.8328 19.4641 13.0906L18.4844 13.85L26.7906 21.5H28.75C29.9922 21.5 31 20.4922 31 19.25V13.25C31 12.0078 29.9922 11 28.75 11H25.1875H25H24.9672L24.7844 10.8828L21.3812 8.70312C20.6641 8.24375 19.825 8 18.9719 8C17.95 8 16.9562 8.35156 16.1594 8.99375ZM17.2281 14.825C16.0971 15.2226 14.8047 16.7094 14.8047 16.7094C13.3281 17.8625 11.1859 17.5625 10.0797 16.0438C9.03906 14.6141 9.30156 12.6172 10.675 11.5062L14.575 8.35156C14.0313 8.12188 13.4453 8.00469 12.85 8.00469C11.9688 8 11.1109 8.2625 10.375 8.75L7 11H3.25C2.00781 11 1 12.0078 1 13.25V19.25C1 20.4922 2.00781 21.5 3.25 21.5H8.32187L12.6063 25.4094C13.525 26.2484 14.9453 26.1828 15.7844 25.2641C16.0422 24.9781 16.2156 24.6453 16.3047 24.2984L17.1016 25.0297C18.0156 25.8687 19.4406 25.8078 20.2797 24.8937C20.4906 24.6641 20.6453 24.3969 20.7438 24.1203C21.6531 24.7297 22.8906 24.6031 23.6547 23.7687C24.4937 22.8547 24.4328 21.4297 23.5187 20.5906C23.5187 20.5906 20.3719 13.7198 17.2281 14.825Z" fill="white"/>
</svg>