
<svg width="30" height="18" viewBox="0 0 30 18" fill="none" xmlns="http://www.w3.org/2000/svg">
<path d="M15.1594 0.99375L10.6219 4.66875C9.86719 5.27812 9.72188 6.375 10.2938 7.15781C10.8984 7.99219 12.075 8.15625 12.8859 7.52344L17.5406 3.90469C17.8688 3.65156 18.3375 3.70781 18.5953 4.03594C18.8531 4.36406 18.7922 4.83281 18.4641 5.09062L17.4844 5.85L25.7906 13.5H27.75C28.9922 13.5 30 12.4922 30 11.25V5.25C30 4.00781 28.9922 3 27.75 3H24.1875H24H23.9672L23.7844 2.88281L20.3812 0.703125C19.6641 0.24375 18.825 0 17.9719 0C16.95 0 15.9562 0.351562 15.1594 0.99375ZM16.2281 6.825C15.0971 7.2226 13.8047 8.70937 13.8047 8.70937C12.3281 9.8625 10.1859 9.5625 9.07969 8.04375C8.03906 6.61406 8.30156 4.61719 9.675 3.50625L13.575 0.351562C13.0313 0.121875 12.4453 0.00468743 11.85 0.00468743C10.9688 -7.17118e-08 10.1109 0.2625 9.375 0.75L6 3H2.25C1.00781 3 0 4.00781 0 5.25V11.25C0 12.4922 1.00781 13.5 2.25 13.5H7.32187L11.6063 17.4094C12.525 18.2484 13.9453 18.1828 14.7844 17.2641C15.0422 16.9781 15.2156 16.6453 15.3047 16.2984L16.1016 17.0297C17.0156 17.8687 18.4406 17.8078 19.2797 16.8937C19.4906 16.6641 19.6453 16.3969 19.7438 16.1203C20.6531 16.7297 21.8906 16.6031 22.6547 15.7687C23.4937 14.8547 23.4328 13.4297 22.5187 12.5906C22.5187 12.5906 19.3719 5.71981 16.2281 6.825Z" fill="#3B82F6"/>
</svg>